Coordinates
version=1
nRows=11
nColumns=41
inDegrees=yes

Units are S.I. units (second, meters, Newtons, ...)
If the header above contains a line with 'inDegrees', this indicates whether rotational values are in degrees (yes) or radians (no).

endheader
time	pelvis_tilt	pelvis_list	pelvis_rotation	pelvis_tx	pelvis_ty	pelvis_tz	hip_flexion_r	hip_adduction_r	hip_rotation_r	knee_angle_r	ankle_angle_r	subtalar_angle_r	mtp_angle_r	hip_flexion_l	hip_adduction_l	hip_rotation_l	knee_angle_l	ankle_angle_l	subtalar_angle_l	mtp_angle_l	L5_S1_Flex_Ext	L5_S1_Lat_Bending	L5_S1_axial_rotation	neck_flexion	neck_bending	neck_rotation	arm_flex_r	arm_add_r	arm_rot_r	elbow_flex_r	pro_sup_r	wrist_flex_r	wrist_dev_r	arm_flex_l	arm_add_l	arm_rot_l	elbow_flex_l	pro_sup_l	wrist_flex_l	wrist_dev_l
     13.20000000	     -2.06713643	      7.73412933	    -83.52023468	      0.14163002	      1.03987043	     -0.00596922	      9.16005222	     -0.42892281	     -3.94399225	      1.60066256	     -0.74088348	    -13.61029261	      0.00000000	      8.33509573	     -2.21166690	     -8.30138233	      0.00000000	     -0.90685479	     -9.86486906	      0.00000000	      0.00963817	      0.61520309	      1.01519847	      0.00000000	      0.00000000	      0.00000002	      8.84023987	    -11.00059300	    -51.98185867	     14.82801880	     94.41481262	      0.00000000	      0.00000000	      7.73106199	    -13.57270025	    -41.16885199	     21.07802352	     65.56424536	      0.00000000	      0.00000000
     13.22000000	     -2.06591408	      7.65576535	    -83.54975053	      0.14142310	      1.04047395	     -0.00764531	      9.13608208	     -0.39880851	     -3.87896019	      1.52490588	     -0.76381385	    -13.54654673	      0.00000000	      8.31336167	     -2.25684180	     -8.28731938	      0.00000000	     -0.91479604	     -9.83375615	      0.00000000	      0.00713440	      0.63145001	      1.01396147	      0.00000000	      0.00000000	      0.00000002	      9.46125352	    -11.04266102	    -51.93724022	     15.02500888	     94.43887466	      0.00000000	      0.00000000	      8.34223645	    -13.71993590	    -41.15075575	     21.30399391	     65.62250902	      0.00000000	      0.00000000
     13.24000000	     -2.14644491	      7.65451299	    -83.47333537	      0.14102358	      1.04109216	     -0.00910906	      9.22785198	     -0.32230664	     -4.51863917	      1.56404594	     -0.42196250	    -12.05423870	      0.00000000	      8.39162081	     -2.37732776	     -8.61059096	      0.00000000	     -0.10213933	     -8.61521953	      0.00000000	      0.01902603	      0.63640350	      1.46643249	      0.00000000	      0.00000000	      0.00000002	      9.33784954	    -11.04764305	    -50.41286144	     16.34234405	     98.72571620	      0.00000000	      0.00000000	      9.58315211	    -13.39021449	    -45.15985269	     21.25639675	     78.00073966	      0.00000000	      0.00000000
     13.26000000	     -2.06613617	      7.61764789	    -83.52386316	      0.14023681	      1.04170660	     -0.01053108	      9.27476234	     -0.36408126	     -4.15732732	      1.62030699	     -0.40955521	    -12.21573217	      0.00000000	      8.43899528	     -2.33207809	     -8.72480520	      0.00000000	     -0.77161154	     -8.68004042	      0.00000000	      0.01151927	      0.45970764	      1.46471297	      0.00000000	      0.00000000	      0.00000002	     10.55521798	    -11.01296407	    -50.39628898	     16.44783112	     98.75935958	      0.00000000	      0.00000000	     10.51412175	    -13.55944569	    -45.09467330	     21.67822857	     78.27845743	      0.00000000	      0.00000000
     13.28000000	     -2.04693247	      7.44782177	    -83.48598696	      0.13969131	      1.04228703	     -0.01146673	      9.11336085	     -0.33288415	     -4.12257114	      1.62459185	     -0.44859393	    -12.20224089	      0.00000000	      8.34257271	     -2.34911124	     -8.70252543	      0.00000000	     -0.77334161	     -8.69202732	      0.00000000	      0.00497778	      0.44203384	      1.47613861	      0.00000000	      0.00000000	      0.00000002	     11.58509069	    -11.02594766	    -50.29285013	     16.76713692	     98.77949790	      0.00000000	      0.00000000	     11.45544577	    -13.63657427	    -45.00550778	     22.03576639	     78.33297232	      0.00000000	      0.00000000
     13.30000000	     -2.02308579	      7.27255225	    -83.41872806	      0.13940255	      1.04256631	     -0.01239735	      8.93845288	     -0.30297104	     -4.07628287	      1.65394219	     -0.50186820	    -12.16978214	      0.00000000	      8.25352715	     -2.35021476	     -8.64620720	      0.00000000	     -0.83102202	     -8.65228515	      0.00000000	      0.00530100	      0.36978165	      1.51016287	      0.00000000	      0.00000000	      0.00000002	     12.68459556	    -11.00909985	    -50.14476729	     17.14997859	     98.80613284	      0.00000000	      0.00000000	     12.46997460	    -13.68865331	    -44.89561412	     22.44802117	     78.38989651	      0.00000000	      0.00000000
     13.32000000	     -1.97935250	      7.25637362	    -83.33179566	      0.13941057	      1.04242834	     -0.01325760	      8.94455649	     -0.31539827	     -3.88495729	      1.72365472	     -0.79919201	    -12.44128429	      0.00000000	      8.33775961	     -2.30070136	     -8.43500304	      0.00000000	     -1.07638667	     -8.70147920	      0.00000000	      0.00612464	      0.12048522	      2.22007386	      0.00000000	      0.00000000	      0.00000002	     12.65078398	    -10.95083957	    -47.80197922	     19.60749114	     99.20956019	      0.00000000	      0.00000000	     13.24659142	    -13.23817829	    -43.98246037	     25.11357186	     79.59270001	      0.00000000	      0.00000000
     13.34000000	     -1.91232827	      7.00087887	    -83.27750171	      0.13978272	      1.04279622	     -0.01401030	      8.70003249	     -0.33789782	     -3.86540189	      1.80334356	     -0.84268289	    -12.39574463	      0.00000000	      8.15160674	     -2.23091806	     -8.31925306	      0.00000000	     -1.14343408	     -8.55543647	      0.00000000	      0.00323995	      0.02090151	      2.19828659	      0.00000000	      0.00000000	      0.00000002	     13.91351769	    -10.93939342	    -47.49118268	     20.18365000	     99.23049880	      0.00000000	      0.00000000	     14.37234557	    -13.22803210	    -43.76854107	     25.60744539	     79.69072739	      0.00000000	      0.00000000
     13.36000000	     -1.90152780	      6.90886376	    -83.28294503	      0.14028613	      1.04308919	     -0.01430432	      8.63995292	     -0.33327672	     -3.90554588	      1.90620259	     -0.97342958	    -12.33766353	      0.00000000	      8.09715795	     -2.20297528	     -8.36651047	      0.00000000	     -0.79384477	     -7.70327721	      0.00000000	      0.00551440	     -0.05102823	      2.43382569	      0.00000000	      0.00000000	      0.00000002	     13.78240073	    -10.94744683	    -43.83244450	     24.28029672	     99.26223530	      0.00000000	      0.00000000	     14.54295077	    -13.02730679	    -41.63164800	     29.09138774	     80.76028116	      0.00000000	      0.00000000
     13.38000000	     -1.85468925	      6.73026997	    -83.31636066	      0.14076094	      1.04363567	     -0.01451159	      8.48916480	     -0.37844359	     -3.73935555	      2.03026936	     -1.10558959	    -12.34582559	      0.00000000	      7.92428102	     -2.13417832	     -8.24808857	      0.00000000	     -0.60486299	     -7.18218612	      0.00000000	      0.00511040	     -0.13646887	      2.43414953	      0.00000000	      0.00000000	      0.00000002	     14.12458042	    -11.21018872	    -40.11863094	     27.47983618	     98.58579892	      0.00000000	      0.00000000	     14.98122720	    -13.12830423	    -39.01034732	     31.88430029	     81.52750011	      0.00000000	      0.00000000
     13.40000000	     -1.79703168	      6.45273405	    -83.37557371	      0.14103105	      1.04446268	     -0.01430745	      8.10940532	     -0.41603774	     -3.59215136	      1.95442263	     -1.16417846	    -12.43040486	      0.00000000	      7.59018152	     -2.05734722	     -8.13033484	      0.00000000	     -0.20579970	     -6.91578535	      0.00000000	      0.00570150	     -0.19443348	      2.32740317	      0.00000000	      0.00000000	      0.00000002	     14.62729696	    -11.39963705	    -37.49445132	     31.12750753	     97.58754795	      0.00000000	      0.00000000	     15.41245087	    -13.24725411	    -36.52630923	     34.99728486	     81.85646533	      0.00000000	      0.00000000
